<?xml version="1.0" encoding="UTF-8"?><svg id="Layer_1" xmlns="http://www.w3.org/2000/svg" viewBox="0 0 61.03 45.81"><defs><style>.cls-1{fill:none;stroke:#6ebf58;stroke-linecap:round;stroke-linejoin:round;}</style></defs><g id="ARC"><path class="cls-1" d="M22.79,11.06c.37.45.78.86,1.22,1.24"/></g><g id="LINE"><line class="cls-1" x1="27.91" y1="41.03" x2="7.58" y2="4.49"/></g><g id="LINE-2"><line class="cls-1" x1="27.77" y1="41.16" x2="15.39" y2="20.92"/></g><g id="LINE-3"><line class="cls-1" x1="28.22" y1="40.74" x2="18.22" y2="18.36"/></g><g id="LINE-4"><line class="cls-1" x1="15.69" y1="44.75" x2="24.78" y2="41.8"/></g><g id="LINE-5"><line class="cls-1" x1="22.64" y1="42.5" x2="24.46" y2="40.95"/></g><g id="LINE-6"><line class="cls-1" x1="21.99" y1="40.8" x2="24.43" y2="40.87"/></g><g id="LINE-7"><line class="cls-1" x1="23.11" y1="40.83" x2="24.06" y2="40.14"/></g><g id="LINE-8"><line class="cls-1" x1="13.22" y1="13.04" x2="24.98" y2="41.59"/></g><g id="LINE-9"><line class="cls-1" x1="23.5" y1="44.92" x2="25.14" y2="43.3"/></g><g id="ARC-2"><path class="cls-1" d="M22.24,3.27c.36.58.86,1.06,1.44,1.4"/></g><g id="LINE-10"><line class="cls-1" x1="9.13" y1="19.25" x2="12.21" y2="20.65"/></g><g id="LINE-11"><line class="cls-1" x1="18.22" y1="18.36" x2="13.7" y2="8.53"/></g><g id="LINE-12"><line class="cls-1" x1="7.58" y1="4.49" x2="13.22" y2="13.04"/></g><g id="ARC-3"><path class="cls-1" d="M6.71,14.97c-.48-.25-.99-.43-1.53-.52"/></g><g id="ARC-4"><path class="cls-1" d="M5.18,14.45c.42.35.87.65,1.35.9"/></g><g id="LINE-13"><line class="cls-1" x1="14.18" y1="44.26" x2="8.85" y2="44.49"/></g><g id="LINE-14"><line class="cls-1" x1="7.83" y1="41.95" x2="7.02" y2="40.74"/></g><g id="LINE-15"><line class="cls-1" x1="7.02" y1="41.94" x2="6.6" y2="41.8"/></g><g id="LINE-16"><line class="cls-1" x1="15.69" y1="44.75" x2="8.34" y2="42.37"/></g><g id="LINE-17"><line class="cls-1" x1="8.74" y1="42.5" x2="8.41" y2="42.52"/></g><g id="LINE-18"><line class="cls-1" x1="10.89" y1="37.18" x2="11.47" y2="36.18"/></g><g id="LINE-19"><line class="cls-1" x1="10.81" y1="38.8" x2="9.54" y2="37.43"/></g><g id="LINE-20"><line class="cls-1" x1="11.46" y1="42.06" x2="12.05" y2="35.92"/></g><g id="LINE-21"><line class="cls-1" x1="10.7" y1="40.98" x2="10.92" y2="36.47"/></g><g id="LINE-22"><line class="cls-1" x1="9.97" y1="39.95" x2="7.19" y2="40.38"/></g><g id="LINE-23"><line class="cls-1" x1="8.59" y1="40.16" x2="7.99" y2="39.09"/></g><g id="ARC-5"><path class="cls-1" d="M8.43,17.75c-.02.59.24,1.15.7,1.51"/></g><g id="ARC-6"><path class="cls-1" d="M8.43,17.75c.03-.71-.21-1.41-.68-1.95"/></g><g id="ARC-7"><path class="cls-1" d="M7.75,15.8c-.29-.34-.64-.62-1.04-.83"/></g><g id="ARC-8"><path class="cls-1" d="M6.53,15.35c.38.2.79.35,1.22.45"/></g><g id="ARC-9"><path class="cls-1" d="M7.75,15.8c.66.15,1.35.14,2.01-.03"/></g><g id="ARC-10"><path class="cls-1" d="M11.22,15.89c-.46-.2-.97-.24-1.46-.12"/></g><g id="ARC-11"><path class="cls-1" d="M12.25,16.54c-.31-.27-.66-.49-1.03-.66"/></g><g id="ARC-12"><path class="cls-1" d="M13.65,20.91c.58.05,1.16.05,1.74.01"/></g><g id="ARC-13"><path class="cls-1" d="M12.21,20.65c.47.14.95.23,1.44.27"/></g><g id="ARC-14"><path class="cls-1" d="M13.97,18.31c-.53-.63-1.1-1.22-1.72-1.77"/></g><g id="ARC-15"><path class="cls-1" d="M14.72,19.41c-.21-.39-.46-.76-.75-1.1"/></g><g id="ARC-16"><path class="cls-1" d="M15.39,20.92c-.19-.52-.41-1.03-.68-1.52"/></g><g id="LINE-24"><line class="cls-1" x1="18.5" y1="37.83" x2="17.22" y2="35.32"/></g><g id="LINE-25"><line class="cls-1" x1="13.87" y1="37.54" x2="14.7" y2="35.25"/></g><g id="LINE-26"><line class="cls-1" x1="14.25" y1="36.49" x2="13.89" y2="35.37"/></g><g id="LINE-27"><line class="cls-1" x1="15.69" y1="37.45" x2="14.78" y2="35.24"/></g><g id="LINE-28"><line class="cls-1" x1="12.66" y1="43.77" x2="8.74" y2="38.19"/></g><g id="LINE-29"><line class="cls-1" x1="16.95" y1="39.9" x2="22.97" y2="38.56"/></g><g id="LINE-30"><line class="cls-1" x1="19.88" y1="43.53" x2="23.35" y2="39.03"/></g><g id="LINE-31"><line class="cls-1" x1="15.43" y1="42.63" x2="23.27" y2="38.93"/></g><g id="LINE-32"><line class="cls-1" x1="17.74" y1="38.84" x2="22.1" y2="37.66"/></g><g id="LINE-33"><line class="cls-1" x1="19.84" y1="38.27" x2="20.76" y2="36.65"/></g><g id="LINE-34"><line class="cls-1" x1="21.41" y1="37.85" x2="22.54" y2="38.09"/></g><g id="LINE-35"><line class="cls-1" x1="13.82" y1="38.12" x2="14.24" y2="35.31"/></g><g id="LINE-36"><line class="cls-1" x1="15.69" y1="43.16" x2="12.89" y2="35.62"/></g><g id="LINE-37"><line class="cls-1" x1="13.59" y1="44.35" x2="12.49" y2="35.74"/></g><g id="LINE-38"><line class="cls-1" x1="15.69" y1="44.75" x2="15.69" y2="35.19"/></g><g id="LINE-39"><line class="cls-1" x1="15.69" y1="41.57" x2="19.78" y2="36.11"/></g><g id="LINE-40"><line class="cls-1" x1="21.95" y1="44.87" x2="21.98" y2="44.92"/></g><g id="LINE-41"><line class="cls-1" x1="15.69" y1="44.75" x2="15.57" y2="44.92"/></g><g id="LINE-42"><line class="cls-1" x1="15.69" y1="44.75" x2="15.82" y2="44.92"/></g><g id="LINE-43"><line class="cls-1" x1="20.7" y1="44.45" x2="20.98" y2="44.92"/></g><g id="LINE-44"><line class="cls-1" x1="18.72" y1="43.77" x2="22.1" y2="44.92"/></g><g id="LINE-45"><line class="cls-1" x1="17.83" y1="44.06" x2="18.64" y2="44.92"/></g><g id="ARC-17"><path class="cls-1" d="M21.34,5.13c.53-.48.85-1.15.9-1.86"/></g><g id="ARC-18"><path class="cls-1" d="M22.24,3.27c.03-.45-.02-.89-.15-1.32"/></g><g id="ARC-19"><path class="cls-1" d="M22.08,1.95c-.16-.52-.4-1-.71-1.45"/></g><g id="ARC-20"><path class="cls-1" d="M21.37.5c.05.54.16,1.07.32,1.59"/></g><g id="ARC-21"><path class="cls-1" d="M21.69,2.09c.13.42.31.81.54,1.18"/></g><g id="ARC-22"><path class="cls-1" d="M21.97,9.86c.24.43.51.83.83,1.21"/></g><g id="ARC-23"><path class="cls-1" d="M21.07,7.93c.25.66.55,1.31.89,1.93"/></g><g id="ARC-24"><path class="cls-1" d="M20.77,6.69c.05.42.16.84.31,1.24"/></g><g id="ARC-25"><path class="cls-1" d="M21.34,5.13c-.43.4-.64.98-.57,1.56"/></g><g id="LINE-46"><line class="cls-1" x1="13.7" y1="8.53" x2="7.58" y2="4.49"/></g><g id="ARC-26"><path class="cls-1" d="M1.4,43.6c-.34.41-.64.85-.9,1.32"/></g><g id="ARC-27"><path class="cls-1" d="M2.43,42.61c-.38.29-.72.62-1.03.99"/></g><g id="ARC-28"><path class="cls-1" d="M4.37,41.36c-.68.36-1.33.78-1.94,1.25"/></g><g id="ARC-29"><path class="cls-1" d="M4.94,41.26c-.2-.03-.4,0-.57.1"/></g><g id="ARC-30"><path class="cls-1" d="M5.51,41.48c-.17-.11-.37-.19-.57-.22"/></g><g id="ARC-31"><path class="cls-1" d="M5.51,41.48c.24.16.5.28.78.36"/></g><g id="ARC-32"><path class="cls-1" d="M6.29,41.84c.35.1.71.12,1.06.07"/></g><g id="ARC-33"><path class="cls-1" d="M8.03,42.03c-.2-.12-.44-.16-.67-.13"/></g><g id="ARC-34"><path class="cls-1" d="M8.38,42.44c-.07-.17-.19-.31-.35-.4"/></g><g id="ARC-35"><path class="cls-1" d="M8.8,43.96c-.08-.52-.23-1.03-.42-1.53"/></g><g id="ARC-36"><path class="cls-1" d="M8.85,44.61c0-.22-.02-.43-.05-.65"/></g><g id="ARC-37"><path class="cls-1" d="M8.8,45.31c.03-.23.05-.47.05-.7"/></g><g id="ARC-38"><path class="cls-1" d="M36.22,10.56c-.05.58-.05,1.16-.01,1.74"/></g><g id="ARC-39"><path class="cls-1" d="M36.21,12.3c.52-.19,1.03-.41,1.52-.68"/></g><g id="LINE-47"><line class="cls-1" x1="41.91" y1="18.65" x2="48.6" y2="10.6"/></g><g id="LINE-48"><line class="cls-1" x1="44.1" y1="10.13" x2="37.98" y2="21.89"/></g><g id="ARC-40"><path class="cls-1" d="M24.02,12.3c.24-.5.44-1.02.59-1.55"/></g><g id="LINE-49"><line class="cls-1" x1="34.42" y1="37.25" x2="52.65" y2="4.49"/></g><g id="LINE-50"><line class="cls-1" x1="28.06" y1="5.19" x2="28.88" y2="20.99"/></g><g id="LINE-51"><line class="cls-1" x1="31.99" y1="13.31" x2="31.58" y2="2.34"/></g><g id="LINE-52"><line class="cls-1" x1="37.98" y1="21.89" x2="32.53" y2="37.89"/></g><g id="LINE-53"><line class="cls-1" x1="34.92" y1="37.14" x2="44.83" y2="20.92"/></g><g id="LINE-54"><line class="cls-1" x1="33.45" y1="37.54" x2="41.91" y2="18.65"/></g><g id="LINE-55"><line class="cls-1" x1="25.77" y1="43.61" x2="24.88" y2="43.33"/></g><g id="LINE-56"><line class="cls-1" x1="24.98" y1="41.59" x2="26.51" y2="42.6"/></g><g id="LINE-57"><line class="cls-1" x1="29.17" y1="39.91" x2="24.02" y2="12.3"/></g><g id="LINE-58"><line class="cls-1" x1="28.88" y1="20.99" x2="29.83" y2="39.42"/></g><g id="LINE-59"><line class="cls-1" x1="30.47" y1="38.99" x2="31.99" y2="13.31"/></g><g id="LINE-60"><line class="cls-1" x1="31.33" y1="38.48" x2="36.21" y2="12.3"/></g><g id="ARC-41"><path class="cls-1" d="M46.07,19.7c-.45.37-.86.78-1.24,1.22"/></g><g id="ARC-42"><path class="cls-1" d="M47.28,18.87c-.43.24-.83.51-1.21.83"/></g><g id="ARC-43"><path class="cls-1" d="M49.21,19.15c-.63-.14-1.28-.23-1.93-.27"/></g><g id="ARC-44"><path class="cls-1" d="M50.45,18.84c-.42.05-.84.16-1.24.31"/></g><g id="ARC-45"><path class="cls-1" d="M52.01,19.41c-.4-.43-.98-.64-1.56-.57"/></g><g id="ARC-46"><path class="cls-1" d="M52.01,19.41c.48.53,1.15.85,1.86.9"/></g><g id="ARC-47"><path class="cls-1" d="M53.87,20.31c.45.03.89-.02,1.32-.15"/></g><g id="ARC-48"><path class="cls-1" d="M55.19,20.16c.52-.16,1-.4,1.45-.71"/></g><g id="ARC-49"><path class="cls-1" d="M56.64,19.44c-.54.05-1.07.16-1.59.32"/></g><g id="ARC-50"><path class="cls-1" d="M55.05,19.76c-.42.13-.81.31-1.18.54"/></g><g id="ARC-51"><path class="cls-1" d="M53.87,20.31c-.58.36-1.06.86-1.4,1.44"/></g><g id="ARC-52"><path class="cls-1" d="M51.35,22.7c.47-.18.86-.52,1.11-.95"/></g><g id="ARC-53"><path class="cls-1" d="M44.83,20.92c.5.24,1.02.44,1.55.59"/></g><g id="ARC-54"><path class="cls-1" d="M47.69,21.77c.79.46,1.62.86,2.47,1.2"/></g><g id="ARC-55"><path class="cls-1" d="M50.16,22.96c.41-.03.81-.12,1.2-.27"/></g><g id="ARC-56"><path class="cls-1" d="M46.38,21.52c.43.13.86.21,1.3.25"/></g><g id="ARC-57"><path class="cls-1" d="M37.22,7.13c-.29.65-.54,1.31-.73,1.99"/></g><g id="ARC-58"><path class="cls-1" d="M24.63,5.78c-.18-.47-.52-.86-.95-1.11"/></g><g id="ARC-59"><path class="cls-1" d="M36.49,9.12c-.14.47-.23.95-.27,1.44"/></g><g id="ARC-60"><path class="cls-1" d="M24.86,9.45c.07-.82.09-1.65.03-2.47"/></g><g id="ARC-61"><path class="cls-1" d="M24.61,10.75c.13-.43.21-.86.25-1.3"/></g><g id="ARC-62"><path class="cls-1" d="M24.89,6.98c-.03-.41-.12-.81-.27-1.2"/></g><g id="ARC-63"><path class="cls-1" d="M39.39,5.33c.71.03,1.41-.21,1.95-.68"/></g><g id="ARC-64"><path class="cls-1" d="M41.34,4.65c.34-.29.62-.64.83-1.04"/></g><g id="ARC-65"><path class="cls-1" d="M42.17,3.61c.25-.48.43-.99.52-1.53"/></g><g id="ARC-66"><path class="cls-1" d="M42.69,2.09c-.35.42-.65.87-.9,1.35"/></g><g id="ARC-67"><path class="cls-1" d="M41.79,3.44c-.2.38-.35.79-.45,1.22"/></g><g id="ARC-68"><path class="cls-1" d="M37.88,6.03c-.26.34-.48.71-.66,1.1"/></g><g id="ARC-69"><path class="cls-1" d="M41.25,8.12c.2-.46.24-.97.12-1.46"/></g><g id="ARC-70"><path class="cls-1" d="M40.59,9.16c.27-.31.49-.66.66-1.03"/></g><g id="ARC-71"><path class="cls-1" d="M38.83,10.88c.63-.53,1.22-1.1,1.77-1.72"/></g><g id="ARC-72"><path class="cls-1" d="M37.73,11.62c.39-.21.76-.46,1.1-.75"/></g><g id="ARC-73"><path class="cls-1" d="M39.39,5.33c-.59-.02-1.15.24-1.51.7"/></g><g id="ARC-74"><path class="cls-1" d="M41.34,4.65c-.15.66-.14,1.35.03,2.01"/></g><g id="LINE-61"><line class="cls-1" x1="52.65" y1="4.49" x2="44.1" y2="10.13"/></g><g id="LINE-62"><line class="cls-1" x1="48.6" y1="10.6" x2="52.65" y2="4.49"/></g><g id="ARC-75"><path class="cls-1" d="M43.84,43.86c-.32.4-.62.82-.87,1.26"/></g><g id="ARC-76"><path class="cls-1" d="M44.71,43c-.32.26-.61.55-.86.86"/></g><g id="ARC-77"><path class="cls-1" d="M46.54,41.7c-.64.39-1.25.83-1.83,1.3"/></g><g id="ARC-78"><path class="cls-1" d="M47.22,41.46c-.24.03-.47.12-.68.24"/></g><g id="ARC-79"><path class="cls-1" d="M48.09,41.52c-.28-.09-.58-.11-.88-.07"/></g><g id="ARC-80"><path class="cls-1" d="M48.09,41.52c.34.1.7.15,1.05.12"/></g><g id="ARC-81"><path class="cls-1" d="M49.15,41.65c.68-.04,1.36-.17,2.02-.36"/></g><g id="ARC-82"><path class="cls-1" d="M53.97,40.68c-.95.12-1.89.32-2.81.6"/></g><g id="ARC-83"><path class="cls-1" d="M56.72,40.51c-.92,0-1.84.06-2.75.18"/></g><g id="ARC-84"><path class="cls-1" d="M57.83,40.68c-.36-.12-.74-.18-1.11-.18"/></g><g id="ARC-85"><path class="cls-1" d="M58.39,41.03c-.16-.16-.35-.27-.56-.34"/></g><g id="ARC-86"><path class="cls-1" d="M59.57,42.42c-.35-.5-.75-.96-1.18-1.39"/></g><g id="ARC-87"><path class="cls-1" d="M60.22,43.7c-.15-.46-.37-.89-.65-1.28"/></g><g id="ARC-88"><path class="cls-1" d="M60.53,45.31c-.04-.55-.14-1.09-.32-1.62"/></g><g id="LINE-63"><line class="cls-1" x1="24.82" y1="45.12" x2="25.49" y2="44.01"/></g><g id="LINE-64"><line class="cls-1" x1="25.49" y1="44.01" x2="26.19" y2="43"/></g><g id="LINE-65"><line class="cls-1" x1="26.19" y1="43" x2="26.93" y2="42.08"/></g><g id="LINE-66"><line class="cls-1" x1="26.93" y1="42.08" x2="27.69" y2="41.24"/></g><g id="LINE-67"><line class="cls-1" x1="27.69" y1="41.24" x2="28.48" y2="40.49"/></g><g id="LINE-68"><line class="cls-1" x1="28.48" y1="40.49" x2="29.29" y2="39.81"/></g><g id="LINE-69"><line class="cls-1" x1="29.29" y1="39.81" x2="30.12" y2="39.21"/></g><g id="LINE-70"><line class="cls-1" x1="30.12" y1="39.21" x2="30.97" y2="38.67"/></g><g id="LINE-71"><line class="cls-1" x1="30.97" y1="38.67" x2="31.83" y2="38.21"/></g><g id="LINE-72"><line class="cls-1" x1="31.83" y1="38.21" x2="32.72" y2="37.8"/></g><g id="LINE-73"><line class="cls-1" x1="32.72" y1="37.8" x2="33.65" y2="37.47"/></g><g id="LINE-74"><line class="cls-1" x1="33.65" y1="37.47" x2="34.61" y2="37.2"/></g><g id="LINE-75"><line class="cls-1" x1="34.61" y1="37.2" x2="35.63" y2="37"/></g><g id="LINE-76"><line class="cls-1" x1="35.63" y1="37" x2="36.71" y2="36.87"/></g><g id="LINE-77"><line class="cls-1" x1="36.71" y1="36.87" x2="37.86" y2="36.8"/></g><g id="LINE-78"><line class="cls-1" x1="37.86" y1="36.8" x2="39.09" y2="36.81"/></g><g id="LINE-79"><line class="cls-1" x1="39.09" y1="36.81" x2="40.41" y2="36.89"/></g><g id="LINE-80"><line class="cls-1" x1="40.41" y1="36.89" x2="41.79" y2="37.07"/></g><g id="LINE-81"><line class="cls-1" x1="41.79" y1="37.07" x2="43.24" y2="37.36"/></g><g id="LINE-82"><line class="cls-1" x1="43.24" y1="37.36" x2="44.73" y2="37.78"/></g><g id="LINE-83"><line class="cls-1" x1="44.73" y1="37.78" x2="46.25" y2="38.37"/></g><g id="LINE-84"><line class="cls-1" x1="46.25" y1="38.37" x2="47.77" y2="39.14"/></g><g id="LINE-85"><line class="cls-1" x1="47.77" y1="39.14" x2="49.3" y2="40.12"/></g><g id="LINE-86"><line class="cls-1" x1="49.3" y1="40.12" x2="50.8" y2="41.32"/></g></svg>